<?xml version="1.0" encoding="utf-8"?>
<!-- Generator: Adobe Illustrator 23.0.1, SVG Export Plug-In . SVG Version: 6.00 Build 0)  -->
<svg version="1.1" id="Layer_1" xmlns="http://www.w3.org/2000/svg" xmlns:xlink="http://www.w3.org/1999/xlink" x="0px" y="0px"
	 viewBox="0 0 841.89 595.28" style="enable-background:new 0 0 841.89 595.28;" xml:space="preserve">
<style type="text/css">
	.st0{fill:#929497;}
	.st1{fill:#58595B;}
	.st2{display:none;}
	.st3{display:inline;fill:#231F20;}
	.st4{font-family:'SourceHanSansJP-Light-90ms-RKSJ-H';}
	.st5{font-size:70px;}
	.st6{letter-spacing:-6;}
	.st7{letter-spacing:-12;}
	.st8{letter-spacing:-4;}
	.st9{fill:none;stroke:#C1B49A;stroke-width:20;stroke-miterlimit:10;}
	.st10{fill:#FFDD15;}
</style>
<g>
	<path class="st0" d="M315.51,353.59c-1.4-2.04-4.06-4.59-8.4-4.59c-1.96,0-3.36,0.64-4.2,1.4c-0.7,0.64-1.26,1.66-1.26,2.8
		c0,1.4,0.7,2.29,1.96,3.06c0.84,0.51,1.68,0.76,4.62,2.17l7,3.18c3.08,1.4,6.02,2.8,8.26,4.97c3.22,2.93,4.34,6.24,4.34,9.94
		c0,4.84-1.96,9.04-5.18,12.23c-4.62,4.59-10.36,5.99-16.53,5.99c-3.78,0-8.54-0.51-12.75-3.44c-3.36-2.29-6.16-5.99-7.56-9.81
		l11.2-4.84c0.7,1.78,1.96,4.08,3.22,5.09c0.84,0.76,2.8,2.04,6.02,2.04c2.1,0,4.34-0.64,5.6-1.78c1.12-1.02,1.96-2.67,1.96-4.2
		c0-1.53-0.56-2.8-1.82-4.08c-1.68-1.53-3.64-2.42-5.88-3.31l-5.04-2.17c-2.66-1.15-5.88-2.55-8.12-4.59
		c-3.08-2.67-4.2-5.61-4.2-9.04c0-4.33,1.82-8.53,4.9-11.46c2.66-2.55,7.14-5.1,14.43-5.1c4.2,0,7.56,0.76,10.92,2.8
		c1.96,1.15,4.62,3.18,6.72,6.62L315.51,353.59z"/>
	<path class="st0" d="M336.16,314.36h13.73v37.15c5.88-4.64,12.33-5.07,15.83-5.07c10.78,0,15.69,4.32,17.37,6.16
		c3.64,4.1,3.78,9.39,3.78,12.63v27.86h-13.73v-26.89c0-2.7,0-5.61-2.66-7.88c-1.54-1.3-4.2-2.38-7.7-2.38
		c-4.62,0-8.26,1.73-10.08,3.78c-1.96,2.16-2.8,5.62-2.8,11.45v21.92h-13.73V314.36z"/>
	<path class="st0" d="M409.34,344.69l0,27.8c0,2.88,0.14,6.23,2.52,8.77c1.82,1.96,5.04,3.34,8.96,3.34c3.92,0,7.14-1.38,8.96-3.34
		c2.38-2.54,2.52-5.88,2.52-8.77l0-27.8h13.73v28.15c0,6.23-0.84,11.42-6.3,15.92c-5.32,4.38-12.61,6-19.19,6
		c-6.02,0-13.31-1.5-18.63-6c-5.46-4.5-6.3-9.69-6.3-15.92l0-28.15L409.34,344.69z"/>
</g>
<path class="st1" d="M500.62,339.45h13.73v53.63h-13.73v-5.6c-6.02,6.37-13.45,7.26-17.65,7.26c-18.21,0-28.57-13.76-28.57-28.53
	c0-17.45,13.17-28.15,28.71-28.15c4.34,0,11.9,1.02,17.51,7.64V339.45z M468.41,366.46c0,9.3,6.44,17.07,16.39,17.07
	c8.68,0,16.67-5.73,16.67-16.94c0-11.72-7.98-17.32-16.67-17.32C474.85,349.26,468.41,356.9,468.41,366.46z"/>
<path class="st1" d="M525.72,339.45h13.73v4.84c1.54-1.66,3.78-3.44,5.74-4.46c2.66-1.4,5.32-1.78,8.4-1.78
	c3.36,0,7,0.51,10.79,2.55l-5.6,11.34c-3.08-1.78-5.6-1.91-7-1.91c-2.94,0-5.88,0.38-8.54,2.93c-3.78,3.69-3.78,8.79-3.78,12.36
	v27.77h-13.73V339.45z"/>
<path class="st1" d="M585.55,339.45v30.7c0,3.18,0.14,6.88,2.52,9.68c1.82,2.17,5.04,3.69,8.96,3.69s7.14-1.53,8.96-3.69
	c2.38-2.8,2.52-6.5,2.52-9.68v-30.7h13.73v31.08c0,6.88-0.84,12.61-6.3,17.58c-5.32,4.84-12.61,6.62-19.19,6.62
	c-6.02,0-13.31-1.66-18.63-6.62c-5.46-4.97-6.3-10.7-6.3-17.58v-31.08H585.55z"/>
<path class="st1" d="M650.76,347.76v45.32h-13.73v-45.32h-5.74v-12.32h5.74v-21.08h13.73v21.08h10.5v12.32H650.76z"/>
<path class="st1" d="M711.64,338.45h13.73v53.63h-13.73v-5.6c-6.02,6.37-13.45,7.26-17.65,7.26c-18.21,0-28.57-13.76-28.57-28.53
	c0-17.45,13.17-28.15,28.71-28.15c4.34,0,11.91,1.02,17.51,7.64V338.45z M679.43,365.46c0,9.3,6.44,17.07,16.39,17.07
	c8.68,0,16.67-5.73,16.67-16.94c0-11.72-7.98-17.32-16.67-17.32C685.87,348.26,679.43,355.9,679.43,365.46z"/>
<g class="st2">
	<text transform="matrix(1 0 0 1 357.307 279.693)" class="st3 st4 st5 st6">シ</text>
	<text transform="matrix(0.9018 0 0 0.9018 420.6571 279.693)" class="st3 st4 st5">ュ</text>
	<text transform="matrix(1 0 0 1 483.7802 279.693)" class="st3 st4 st5 st7">ア</text>
	<text transform="matrix(1 0 0 1 541.1801 279.693)" class="st3 st4 st5 st8">ル</text>
	<text transform="matrix(1 0 0 1 606.2806 279.693)" class="st3 st4 st5">タ</text>
</g>
<path class="st9" d="M165.97,390.34c0.77,0.38,1.56,0.72,2.37,1.02c4.6,1.72,9.56,2.21,14.47,2.55c15.72,1.1,31.49,0.78,47.24,0.77
	c4.64,0,9.43-0.01,13.72-1.78c6.4-2.64,9.42-9.24,7.77-15.87c-1.63-6.56-6.76-11.5-10.53-16.86c-0.34-0.48-0.66-0.96-0.98-1.45
	c-5.15-7.98-8.82-17.09-7.65-26.75c1.44-11.94,7.44-17,18.24-20.13c8.67-2.51,26.5-1.8,28.39-11.92
	c2.19-11.78-14.79-18.26-23.67-20.82c-6.68-1.92-13.76-3.68-18.5-9.37c-2.71-3.26-4.25-7.33-5.43-11.4
	c-2.84-9.72-4.86-18.73-11.11-26.96c-4.02-5.28-11.14-11.34-17.6-6.37c-5.41,4.16-8.66,10.31-9.72,20.51
	c-0.61,5.91-1.08,15.63-4.09,18.85c-3.98,4.26-12.02,1.67-17.25,0.76c-10.45-1.82-20.62-5.61-31.34-5.64
	c-4.02-0.01-8.03,0.55-11.83,1.86c-11.21,3.83-14.51,14.93-6.52,24.13c5.4,6.21,13.13,10.2,20.14,14.28
	c7.66,4.46,15.24,9.43,20.75,16.52c4.57,5.88,6.56,12.62,4.62,19.93c-1.58,5.94-4.73,11.54-6.86,17.3
	c-1.99,5.38-4.1,11.15-4.88,16.86c-0.55,3.99-0.26,8.2,1.55,11.8C159.07,385.8,162.3,388.53,165.97,390.34z"/>
<g>
	<path class="st10" d="M263.96,247.5c-3.6-0.23-7.03-1-10.23-2.21c5.94,7.57,14.96,12.67,25.32,13.33
		c19.31,1.23,35.96-13.42,37.19-32.72c1-15.71-8.51-29.66-22.49-34.98c5.13,6.54,7.98,14.91,7.41,23.86
		C299.91,234.09,283.26,248.74,263.96,247.5z"/>
	<g>
		<path class="st10" d="M263.96,245c-3.33-0.3-6.43-1.02-9.56-2.12c-2.59-0.91-3.86,2.44-2.43,4.18c15.56,19,45.5,18.49,59.9-1.66
			c14.38-20.13,4.91-47.86-17.45-56.89c-1.95-0.79-4.09,1.98-2.82,3.67c8.2,10.93,9.59,25.56,2.33,37.37
			C287.52,239.98,276.03,245.54,263.96,245c-3.22-0.14-3.21,4.86,0,5c13.81,0.61,27.01-6.06,34.28-17.92
			c8.1-13.22,6.89-30.13-2.33-42.42c-0.94,1.22-1.88,2.45-2.82,3.67c19.6,7.91,27.04,32.71,14.25,49.81
			c-12.94,17.31-38.45,16.72-51.84,0.38c-0.81,1.39-1.62,2.79-2.43,4.18c3.58,1.26,7.12,1.97,10.89,2.3
			C267.16,250.29,267.14,245.29,263.96,245z"/>
	</g>
</g>
</svg>
