<?xml version="1.0" encoding="UTF-8" standalone="no"?>
<!DOCTYPE svg PUBLIC "-//W3C//DTD SVG 1.1//EN" "http://www.w3.org/Graphics/SVG/1.1/DTD/svg11.dtd">
<svg width="100%" height="100%" viewBox="0 0 1928 522" version="1.1" xmlns="http://www.w3.org/2000/svg" xmlns:xlink="http://www.w3.org/1999/xlink" xml:space="preserve" xmlns:serif="http://www.serif.com/" style="fill-rule:evenodd;clip-rule:evenodd;stroke-linejoin:round;stroke-miterlimit:1.41421;">
    <g transform="matrix(1,0,0,1,-277,-854)">
        <g id="レイヤー-1" serif:id="レイヤー 1" transform="matrix(4.16667,0,0,4.16667,0,0)">
            <g transform="matrix(1,0,0,1,270.209,294.129)">
                <path d="M0,-38.967C3.182,-38.967 5.715,-38.108 6.942,-37.592L7.773,-37.243L10.16,-45.622L9.578,-45.9C7.477,-46.9 3.564,-47.63 0.269,-47.63C-15.029,-47.63 -25.72,-35.903 -25.72,-19.106C-25.72,-1.72 -16.693,8.663 -1.587,8.663C2.616,8.663 6.697,7.884 9.326,6.594L9.849,6.331L8.239,-1.605L7.37,-1.284C4.762,-0.315 2.635,0.092 0.269,0.092C-8.664,0.092 -13.991,-7.083 -13.991,-19.106C-13.991,-28.983 -9.667,-38.967 0,-38.967" style="fill:rgb(160,159,164);fill-rule:nonzero;"/>
            </g>
            <g transform="matrix(1,0,0,1,311.939,294.5)">
                <path d="M0,-15.92C-0.838,-12.858 -1.573,-10.043 -2.138,-7.709C-2.179,-7.886 -2.223,-8.071 -2.26,-8.256C-2.793,-10.67 -3.355,-13.175 -4.166,-16.023L-12.758,-47.231L-25.116,-47.231L-8.687,3.062C-8.47,3.598 -8.47,4.169 -8.47,4.78C-8.47,5.406 -8.566,5.861 -9.078,7.141C-10.026,9.432 -12.076,13.069 -14.73,15.851C-17.463,18.748 -20.565,21.074 -23.463,22.397L-24.176,22.72L-19.815,31.311L-19.135,31.048C-18.112,30.643 -12.725,28.35 -7.375,22.695C0.433,14.343 4.813,0.974 8.63,-11.985L19.348,-47.231L7.65,-47.231L0,-15.92Z" style="fill:rgb(160,159,164);fill-rule:nonzero;"/>
            </g>
            <g transform="matrix(1,0,0,1,369.101,252.759)">
                <path d="M0,21.831C0,29.251 -1.34,41.697 -10.306,41.697C-13.089,41.697 -16.87,40.162 -19.094,32.775C-19.421,32.039 -19.421,30.878 -19.421,29.767L-19.421,14.884C-19.421,13.678 -19.421,12.428 -19.171,11.257C-18.415,6.987 -14.731,2.403 -10.431,2.403C-1.025,2.403 0,15.991 0,21.831M-6.48,-6.377C-12.073,-6.377 -16.324,-4.454 -19.421,-0.539L-19.421,-28.417L-31.145,-28.417L-31.145,35.832C-31.145,38.395 -31.348,42.231 -31.504,45.303C-31.574,46.554 -31.629,47.697 -31.668,48.584L-31.705,49.365L-21.466,49.365L-20.914,43.532C-18.718,46.922 -15.241,50.248 -8.464,50.248C1.582,50.248 11.716,41.323 11.716,21.385C11.716,4.519 4.574,-6.377 -6.48,-6.377" style="fill:rgb(160,159,164);fill-rule:nonzero;"/>
            </g>
            <g transform="matrix(1,0,0,1,409.842,254.611)">
                <path d="M0,40.167C-8.962,40.167 -10.301,27.586 -10.301,20.09C-10.301,14.078 -9.319,0.109 -0.264,0.109C8.68,0.109 9.644,14.078 9.644,20.09C9.644,26.127 8.707,40.167 0,40.167M0.136,-8.229C-16.218,-8.229 -22.019,7.081 -22.019,20.197C-22.019,40.987 -10.917,48.396 -0.527,48.396C9.637,48.396 21.496,40.983 21.496,20.09C21.496,-0.791 10.467,-8.229 0.136,-8.229" style="fill:rgb(160,159,164);fill-rule:nonzero;"/>
            </g>
            <g transform="matrix(1,0,0,1,438.327,293.57)">
                <path d="M0,-37.746L22.375,-37.746C21.729,-36.712 21.011,-35.632 20.271,-34.526C19.443,-33.281 18.591,-32.007 17.791,-30.723L-2.393,2.248L-2.509,2.413L-2.509,8.554L35.605,8.554L35.605,-0.006L10.993,-0.006C11.626,-1.025 12.346,-2.104 13.086,-3.203C13.921,-4.45 14.771,-5.743 15.57,-7.037L35.503,-39.544L35.605,-39.729L35.605,-46.3L0,-46.3L0,-37.746Z" style="fill:rgb(160,159,164);fill-rule:nonzero;"/>
            </g>
            <g transform="matrix(1,0,0,1,521.919,248.933)">
                <path d="M0,52.41C-0.04,51.097 -0.114,49.716 -0.189,48.239C-0.347,45.251 -0.525,41.869 -0.525,37.891L-0.525,-1.664L-12.245,-1.664L-12.245,34.254C-12.245,36.161 -12.414,37.686 -12.763,38.953C-13.244,41.183 -15.616,45.405 -21.098,45.405C-26.641,45.405 -28.895,41.409 -28.895,31.607L-28.895,-1.664L-40.614,-1.664L-40.614,32.82C-40.614,47.324 -35.425,54.074 -24.267,54.074C-18.262,54.074 -13.536,51.235 -10.882,48.416L-10.314,53.191L0.027,53.191L0,52.41Z" style="fill:rgb(160,159,164);fill-rule:nonzero;"/>
            </g>
            <g transform="matrix(1,0,0,1,178.434,301.938)">
                <path d="M0,-22.976C-6.345,-22.976 -11.49,-17.835 -11.49,-11.49C-11.49,-5.14 -6.345,-0.001 0,-0.001C6.341,-0.001 11.485,-5.14 11.485,-11.49C11.485,-17.835 6.341,-22.976 0,-22.976M28.498,-11.49C28.498,4.24 15.752,16.983 0.029,16.983C-15.697,16.983 -28.445,4.24 -28.445,-11.49C-28.445,-27.213 -15.697,-39.959 0.029,-39.959C15.752,-39.959 28.498,-27.213 28.498,-11.49" style="fill:rgb(145,206,220);fill-rule:nonzero;"/>
            </g>
            <g transform="matrix(1,0,0,1,214.553,248.089)">
                <path d="M0,-14.252C-3.927,-14.252 -7.121,-11.065 -7.121,-7.128C-7.121,-3.191 -3.927,0.002 0,0.002C3.944,0.002 7.139,-3.191 7.139,-7.128C7.139,-11.065 3.944,-14.252 0,-14.252M17.699,-7.128C17.699,2.632 9.785,10.543 0.028,10.543C-9.726,10.543 -17.64,2.632 -17.64,-7.128C-17.64,-16.882 -9.726,-24.795 0.028,-24.795C9.785,-24.795 17.699,-16.882 17.699,-7.128" style="fill:rgb(177,218,229);fill-rule:nonzero;"/>
            </g>
            <g transform="matrix(1,0,0,1,117.66,284.025)">
                <path d="M0,-36.601C-10.11,-36.601 -18.301,-28.409 -18.301,-18.305C-18.301,-8.194 -10.11,0.007 0,0.007C10.11,0.007 18.305,-8.194 18.305,-18.305C18.305,-28.409 10.11,-36.601 0,-36.601M45.414,-18.305C45.414,6.757 25.101,27.066 0.048,27.066C-25.013,27.066 -45.326,6.757 -45.326,-18.305C-45.326,-43.359 -25.013,-63.667 0.048,-63.667C25.101,-63.667 45.414,-43.359 45.414,-18.305" style="fill:rgb(93,189,210);fill-rule:nonzero;"/>
            </g>
        </g>
    </g>
</svg>
