<?xml version="1.0" encoding="UTF-8"?><svg id="_イヤー_2" xmlns="http://www.w3.org/2000/svg" viewBox="0 0 155.91 141.73"><defs><style>.cls-1{fill:#ea5514;}</style></defs><g id="logo"><g><path class="cls-1" d="M155.11,82.8c.36-.62,.72-1.26,.8-1.42v-.39c-.12-.2-.52-.88-.88-1.51l-13.94-24.22c-.36-.62-.67-1.18-.7-1.23-.02-.05-.41-.69-.77-1.32l-14.03-24.36c-.36-.62-.86-1.34-1.11-1.59h-.65c-.25,.25-.76,.97-1.12,1.59l-13.84,24.04c-.36,.62-1.24,1.14-1.96,1.14h-26.11c-.72,0-1.01-.51-.65-1.14l13.31-23.12c.36-.63,.65-1.14,.65-1.14h0s.02-.02,.03-.05c.01-.02,.34-.59,.7-1.21L108.88,2.51c.36-.63,.72-1.42,.81-1.77l-.16-.28-.16-.29c-.35-.09-1.21-.17-1.93-.17H48.41c-.72,0-1.44,.04-1.62,.09-.17,.05-.77,.87-1.13,1.5l-14.11,24.5c-.36,.62-.94,1.64-1.3,2.27l-14.11,24.5c-.36,.62-.95,1.64-1.3,2.27L.74,79.62c-.36,.62-.69,1.27-.73,1.45-.04,.17,.37,1.11,.73,1.73l14.11,24.5c.36,.62,.76,1.23,.88,1.36,.13,.12,1.15,.23,1.87,.23h29.52s.42-.18,.92-.41v-.73c-.12-.2-.51-.88-.87-1.5l-13.76-23.9c-.36-.62-.36-1.64,0-2.26l13.58-23.59c.36-.62,1.24-1.13,1.96-1.13h26.1c.72,0,1.01,.51,.65,1.13l-13.32,23.13c-.36,.62-.71,1.27-.78,1.43v.31c.07,.17,.42,.81,.78,1.44l14.1,24.5c.36,.62,.86,1.34,1.12,1.59h.65c.25-.25,.76-.97,1.12-1.59l14.11-24.5c.36-.62,.67-1.15,.68-1.17,.02-.02,.34-.6,.7-1.22l13.24-23c.36-.62,.94-.62,1.3,0l13.05,22.67c.36,.62,.36,1.64,0,2.26l-13.84,24.04c-.36,.62-.73,1.42-.82,1.77l.16,.28,.16,.28c.35,.1,1.22,.17,1.93,.17h29.52s.02,0,.04,0h.01c.09,0,.17-.02,.25-.05,.05-.02,.09-.04,.14-.06,.03-.02,.05-.04,.08-.06l.15-.1c.1-.17,.48-.82,.84-1.45l14.03-24.37Z"/><g><path class="cls-1" d="M17.96,123.43H7.61v16.79c0,.96,.53,1.5,1.49,1.5s1.49-.53,1.49-1.5v-8.07h5.17c.9,0,1.49-.59,1.49-1.5s-.59-1.49-1.49-1.49h-5.17v-2.74h7.37c.91,0,1.49-.59,1.49-1.5s-.58-1.5-1.49-1.5Z"/><path class="cls-1" d="M34.16,135.02c-.96,0-1.49,.53-1.49,1.5v1c0,1.11-.27,1.21-1.03,1.21h-3.83c-.76,0-1.03-.1-1.03-1.21v-1c0-.97-.53-1.5-1.49-1.5s-1.49,.53-1.49,1.5v1c0,1.18,.15,2.03,.95,2.93,.8,.89,1.71,1.27,3.06,1.27h3.83c1.35,0,2.26-.38,3.06-1.27,.79-.89,.95-1.75,.95-2.92v-1c0-.97-.53-1.5-1.49-1.5Z"/><path class="cls-1" d="M50.59,123.45c-.96,0-1.49,.53-1.49,1.49l-.02,10.82-5.29-12.34h-3.58v16.79c0,.96,.53,1.5,1.49,1.5s1.49-.53,1.49-1.5v-10.72l5.31,12.24h3.57v-16.79c0-.96-.53-1.49-1.49-1.49Z"/><path class="cls-1" d="M64.06,124.85c-.09-.35-.38-1.42-1.52-1.42-1.08,0-1.36,.95-1.5,1.41l-4.41,15.27c-.09,.33-.02,.68,.21,.98,.29,.38,.76,.62,1.22,.62,.74,0,1.31-.51,1.56-1.38l.86-2.72,2.05-7.21,1.4,4.95,.63,2.26,.83,2.7c.26,.89,.83,1.39,1.57,1.39,.47,0,.94-.24,1.22-.62,.23-.3,.3-.65,.21-.97l-4.34-15.26Z"/><path class="cls-1" d="M83.16,123.43h-10.35v16.79c0,.96,.53,1.5,1.49,1.5s1.49-.53,1.49-1.5v-8.07h5.17c.9,0,1.49-.59,1.49-1.5s-.58-1.49-1.49-1.49h-5.17v-2.74h7.37c.91,0,1.49-.59,1.49-1.5s-.58-1.5-1.49-1.5Z"/><path class="cls-1" d="M99.35,123.43h-10.35v16.79c0,.96,.53,1.5,1.49,1.5s1.49-.53,1.49-1.5v-8.07h5.17c.9,0,1.49-.59,1.49-1.5s-.59-1.49-1.49-1.49h-5.17v-2.74h7.37c.91,0,1.49-.59,1.49-1.5s-.58-1.5-1.49-1.5Z"/><path class="cls-1" d="M115.55,126.42c.9,0,1.49-.59,1.49-1.5s-.59-1.5-1.49-1.5h-10.35v18.28h10.35c.9,0,1.49-.59,1.49-1.5s-.59-1.5-1.49-1.5h-7.37v-6.57h2.46c.9,0,1.49-.59,1.49-1.5s-.58-1.49-1.49-1.49h-2.46v-2.74h7.37Z"/><path class="cls-1" d="M131.13,126.42c.91,0,1.49-.59,1.49-1.5s-.58-1.5-1.49-1.5h-9.73v18.28h9.73c.91,0,1.49-.59,1.49-1.5s-.58-1.5-1.49-1.5h-6.75v-12.3h6.75Z"/><path class="cls-1" d="M34.16,123.54c-.96,0-1.49,.53-1.49,1.5v6.51c0,.96,.53,1.49,1.49,1.49s1.49-.53,1.49-1.49v-6.51c0-.96-.53-1.5-1.49-1.5Z"/><path class="cls-1" d="M25.3,133.04c.96,0,1.49-.53,1.49-1.49v-6.51c0-.96-.53-1.5-1.49-1.5s-1.49,.53-1.49,1.5v6.51c0,.96,.53,1.49,1.49,1.49Z"/><path class="cls-1" d="M146.8,123.43h-8.86c-.96,0-1.49,.53-1.49,1.5s.53,1.5,1.49,1.5h2.94v13.8c0,.96,.53,1.5,1.49,1.5s1.49-.53,1.49-1.5v-13.8h2.94c.96,0,1.49-.53,1.49-1.5s-.53-1.5-1.49-1.5Z"/></g></g></g></svg>