<?xml version="1.0" encoding="UTF-8" standalone="no"?>
<!DOCTYPE svg PUBLIC "-//W3C//DTD SVG 1.1//EN" "http://www.w3.org/Graphics/SVG/1.1/DTD/svg11.dtd">
<svg width="100%" height="100%" viewBox="0 0 631 232" version="1.1" xmlns="http://www.w3.org/2000/svg" xmlns:xlink="http://www.w3.org/1999/xlink" xml:space="preserve" xmlns:serif="http://www.serif.com/" style="fill-rule:evenodd;clip-rule:evenodd;stroke-miterlimit:10;">
    <g transform="matrix(1,0,0,1,-105,-181)">
        <g>
            <path d="M315.51,353.59C314.11,351.55 311.45,349 307.11,349C305.15,349 303.75,349.64 302.91,350.4C302.21,351.04 301.65,352.06 301.65,353.2C301.65,354.6 302.35,355.49 303.61,356.26C304.45,356.77 305.29,357.02 308.23,358.43L315.23,361.61C318.31,363.01 321.25,364.41 323.49,366.58C326.71,369.51 327.83,372.82 327.83,376.52C327.83,381.36 325.87,385.56 322.65,388.75C318.03,393.34 312.29,394.74 306.12,394.74C302.34,394.74 297.58,394.23 293.37,391.3C290.01,389.01 287.21,385.31 285.81,381.49L297.01,376.65C297.71,378.43 298.97,380.73 300.23,381.74C301.07,382.5 303.03,383.78 306.25,383.78C308.35,383.78 310.59,383.14 311.85,382C312.97,380.98 313.81,379.33 313.81,377.8C313.81,376.27 313.25,375 311.99,373.72C310.31,372.19 308.35,371.3 306.11,370.41L301.07,368.24C298.41,367.09 295.19,365.69 292.95,363.65C289.87,360.98 288.75,358.04 288.75,354.61C288.75,350.28 290.57,346.08 293.65,343.15C296.31,340.6 300.79,338.05 308.08,338.05C312.28,338.05 315.64,338.81 319,340.85C320.96,342 323.62,344.03 325.72,347.47L315.51,353.59Z" style="fill:rgb(146,148,151);fill-rule:nonzero;"/>
            <path d="M336.16,314.36L349.89,314.36L349.89,351.51C355.77,346.87 362.22,346.44 365.72,346.44C376.5,346.44 381.41,350.76 383.09,352.6C386.73,356.7 386.87,361.99 386.87,365.23L386.87,393.09L373.14,393.09L373.14,366.2C373.14,363.5 373.14,360.59 370.48,358.32C368.94,357.02 366.28,355.94 362.78,355.94C358.16,355.94 354.52,357.67 352.7,359.72C350.74,361.88 349.9,365.34 349.9,371.17L349.9,393.09L336.17,393.09L336.17,314.36L336.16,314.36Z" style="fill:rgb(146,148,151);fill-rule:nonzero;"/>
            <path d="M409.34,344.69L409.34,372.49C409.34,375.37 409.48,378.72 411.86,381.26C413.68,383.22 416.9,384.6 420.82,384.6C424.74,384.6 427.96,383.22 429.78,381.26C432.16,378.72 432.3,375.38 432.3,372.49L432.3,344.69L446.03,344.69L446.03,372.84C446.03,379.07 445.19,384.26 439.73,388.76C434.41,393.14 427.12,394.76 420.54,394.76C414.52,394.76 407.23,393.26 401.91,388.76C396.45,384.26 395.61,379.07 395.61,372.84L395.61,344.69L409.34,344.69Z" style="fill:rgb(146,148,151);fill-rule:nonzero;"/>
        </g>
        <path d="M500.62,339.45L514.35,339.45L514.35,393.08L500.62,393.08L500.62,387.48C494.6,393.85 487.17,394.74 482.97,394.74C464.76,394.74 454.4,380.98 454.4,366.21C454.4,348.76 467.57,338.06 483.11,338.06C487.45,338.06 495.01,339.08 500.62,345.7L500.62,339.45ZM468.41,366.46C468.41,375.76 474.85,383.53 484.8,383.53C493.48,383.53 501.47,377.8 501.47,366.59C501.47,354.87 493.49,349.27 484.8,349.27C474.85,349.26 468.41,356.9 468.41,366.46Z" style="fill:rgb(88,89,91);fill-rule:nonzero;"/>
        <path d="M525.72,339.45L539.45,339.45L539.45,344.29C540.99,342.63 543.23,340.85 545.19,339.83C547.85,338.43 550.51,338.05 553.59,338.05C556.95,338.05 560.59,338.56 564.38,340.6L558.78,351.94C555.7,350.16 553.18,350.03 551.78,350.03C548.84,350.03 545.9,350.41 543.24,352.96C539.46,356.65 539.46,361.75 539.46,365.32L539.46,393.09L525.73,393.09L525.73,339.45L525.72,339.45Z" style="fill:rgb(88,89,91);fill-rule:nonzero;"/>
        <path d="M585.55,339.45L585.55,370.15C585.55,373.33 585.69,377.03 588.07,379.83C589.89,382 593.11,383.52 597.03,383.52C600.95,383.52 604.17,381.99 605.99,379.83C608.37,377.03 608.51,373.33 608.51,370.15L608.51,339.45L622.24,339.45L622.24,370.53C622.24,377.41 621.4,383.14 615.94,388.11C610.62,392.95 603.33,394.73 596.75,394.73C590.73,394.73 583.44,393.07 578.12,388.11C572.66,383.14 571.82,377.41 571.82,370.53L571.82,339.45L585.55,339.45Z" style="fill:rgb(88,89,91);fill-rule:nonzero;"/>
        <path d="M650.76,347.76L650.76,393.08L637.03,393.08L637.03,347.76L631.29,347.76L631.29,335.44L637.03,335.44L637.03,314.36L650.76,314.36L650.76,335.44L661.26,335.44L661.26,347.76L650.76,347.76Z" style="fill:rgb(88,89,91);fill-rule:nonzero;"/>
        <path d="M711.64,338.45L725.37,338.45L725.37,392.08L711.64,392.08L711.64,386.48C705.62,392.85 698.19,393.74 693.99,393.74C675.78,393.74 665.42,379.98 665.42,365.21C665.42,347.76 678.59,337.06 694.13,337.06C698.47,337.06 706.04,338.08 711.64,344.7L711.64,338.45ZM679.43,365.46C679.43,374.76 685.87,382.53 695.82,382.53C704.5,382.53 712.49,376.8 712.49,365.59C712.49,353.87 704.51,348.27 695.82,348.27C685.87,348.26 679.43,355.9 679.43,365.46Z" style="fill:rgb(88,89,91);fill-rule:nonzero;"/>
        <path d="M165.97,390.34C166.74,390.72 167.53,391.06 168.34,391.36C172.94,393.08 177.9,393.57 182.81,393.91C198.53,395.01 214.3,394.69 230.05,394.68C234.69,394.68 239.48,394.67 243.77,392.9C250.17,390.26 253.19,383.66 251.54,377.03C249.91,370.47 244.78,365.53 241.01,360.17C240.67,359.69 240.35,359.21 240.03,358.72C234.88,350.74 231.21,341.63 232.38,331.97C233.82,320.03 239.82,314.97 250.62,311.84C259.29,309.33 277.12,310.04 279.01,299.92C281.2,288.14 264.22,281.66 255.34,279.1C248.66,277.18 241.58,275.42 236.84,269.73C234.13,266.47 232.59,262.4 231.41,258.33C228.57,248.61 226.55,239.6 220.3,231.37C216.28,226.09 209.16,220.03 202.7,225C197.29,229.16 194.04,235.31 192.98,245.51C192.37,251.42 191.9,261.14 188.89,264.36C184.91,268.62 176.87,266.03 171.64,265.12C161.19,263.3 151.02,259.51 140.3,259.48C136.28,259.47 132.27,260.03 128.47,261.34C117.26,265.17 113.96,276.27 121.95,285.47C127.35,291.68 135.08,295.67 142.09,299.75C149.75,304.21 157.33,309.18 162.84,316.27C167.41,322.15 169.4,328.89 167.46,336.2C165.88,342.14 162.73,347.74 160.6,353.5C158.61,358.88 156.5,364.65 155.72,370.36C155.17,374.35 155.46,378.56 157.27,382.16C159.07,385.8 162.3,388.53 165.97,390.34Z" style="fill:none;stroke:rgb(193,180,154);stroke-width:20px;"/>
        <g>
            <path d="M263.96,247.5C260.36,247.27 256.93,246.5 253.73,245.29C259.67,252.86 268.69,257.96 279.05,258.62C298.36,259.85 315.01,245.2 316.24,225.9C317.24,210.19 307.73,196.24 293.75,190.92C298.88,197.46 301.73,205.83 301.16,214.78C299.91,234.09 283.26,248.74 263.96,247.5Z" style="fill:rgb(255,221,21);fill-rule:nonzero;"/>
            <path d="M263.96,245C260.63,244.7 257.53,243.98 254.4,242.88C251.81,241.97 250.54,245.32 251.97,247.06C267.53,266.06 297.47,265.55 311.87,245.4C326.25,225.27 316.78,197.54 294.42,188.51C292.47,187.72 290.33,190.49 291.6,192.18C299.8,203.11 301.19,217.74 293.93,229.55C287.52,239.98 276.03,245.54 263.96,245C260.74,244.86 260.75,249.86 263.96,250C277.77,250.61 290.97,243.94 298.24,232.08C306.34,218.86 305.13,201.95 295.91,189.66C294.97,190.88 294.03,192.11 293.09,193.33C312.69,201.24 320.13,226.04 307.34,243.14C294.4,260.45 268.89,259.86 255.5,243.52C254.69,244.91 253.88,246.31 253.07,247.7C256.65,248.96 260.19,249.67 263.96,250C267.16,250.29 267.14,245.29 263.96,245Z" style="fill:rgb(255,221,21);fill-rule:nonzero;"/>
        </g>
    </g>
</svg>
