<?xml version="1.0" encoding="UTF-8" standalone="no"?>
<!DOCTYPE svg PUBLIC "-//W3C//DTD SVG 1.1//EN" "http://www.w3.org/Graphics/SVG/1.1/DTD/svg11.dtd">
<svg width="100%" height="100%" viewBox="0 0 469 53" version="1.1" xmlns="http://www.w3.org/2000/svg" xmlns:xlink="http://www.w3.org/1999/xlink" xml:space="preserve" xmlns:serif="http://www.serif.com/" style="fill-rule:evenodd;clip-rule:evenodd;stroke-linejoin:round;stroke-miterlimit:1.41421;">
    <g transform="matrix(1,0,0,1,-68,-70)">
        <g id="レイヤー-1" serif:id="レイヤー 1">
            <g transform="matrix(1,0,0,1,445.368,74.8369)">
                <path d="M0,46.166L0,9.457L9.189,9.457L9.189,-0.349L-20.634,-0.349L-20.634,9.5L-11.552,9.5L-11.552,46.166L0,46.166ZM-68.153,16.267C-68.28,16.001 -68.354,15.869 -68.409,15.729C-68.936,14.414 -69.457,13.096 -69.984,11.781C-71.537,7.91 -73.103,4.043 -74.63,0.163C-74.803,-0.275 -75.006,-0.403 -75.448,-0.402C-79.467,-0.388 -83.486,-0.394 -87.506,-0.392C-87.671,-0.392 -87.837,-0.367 -88.052,-0.35C-87.956,-0.146 -87.895,-0.004 -87.825,0.134C-83.302,9.178 -78.775,18.22 -74.267,27.27C-74.081,27.644 -73.979,28.098 -73.977,28.515C-73.958,34.154 -73.964,39.793 -73.964,45.432L-73.964,46.156L-62.411,46.156L-62.411,45.407C-62.411,39.828 -62.418,34.249 -62.397,28.67C-62.396,28.234 -62.287,27.76 -62.094,27.371C-57.586,18.319 -53.059,9.277 -48.537,0.232C-48.446,0.05 -48.371,-0.14 -48.271,-0.365C-48.438,-0.379 -48.517,-0.392 -48.595,-0.392C-52.733,-0.394 -56.873,-0.384 -61.013,-0.406C-61.479,-0.409 -61.584,-0.127 -61.709,0.178C-62.007,0.905 -62.28,1.644 -62.572,2.374C-64.131,6.286 -65.69,10.196 -67.254,14.105C-67.528,14.791 -67.821,15.47 -68.153,16.267M-21.405,13.771C-21.52,12.729 -21.577,11.762 -21.739,10.813C-22.188,8.199 -23.337,5.902 -25.122,3.954C-27.802,1.029 -31.214,-0.422 -35.117,-0.739C-37.005,-0.893 -38.869,-0.626 -40.684,-0.06C-42.611,0.541 -44.344,1.477 -45.908,2.769C-47.515,4.095 -48.761,5.693 -49.66,7.544C-50.419,9.107 -50.869,10.77 -51.075,12.518C-51.316,14.563 -51.122,16.533 -50.19,18.349C-48.802,21.055 -46.613,23.038 -43.966,24.465C-41.304,25.898 -38.553,27.166 -35.872,28.565C-35.111,28.963 -34.367,29.48 -33.782,30.1C-32.738,31.205 -32.386,32.595 -32.847,34.062C-33.256,35.366 -34.2,36.098 -35.594,36.36C-38.142,36.84 -40.628,35.216 -41.049,32.679C-41.147,32.08 -41.175,31.47 -41.236,30.852L-51.726,30.852C-51.998,32.237 -51.888,33.564 -51.658,34.905C-51.217,37.474 -50.094,39.708 -48.364,41.618C-45.686,44.577 -42.226,45.916 -38.319,46.187C-36.534,46.312 -34.759,46.114 -33.006,45.725C-30.271,45.116 -27.824,43.913 -25.722,42.08C-24.077,40.647 -22.817,38.905 -21.964,36.869C-20.998,34.566 -20.636,32.186 -21.036,29.733C-21.55,26.58 -23.324,24.199 -25.811,22.272C-27.765,20.759 -29.958,19.676 -32.143,18.562C-34.058,17.586 -36.021,16.675 -37.819,15.513C-39.322,14.542 -39.926,12.667 -38.878,11.107C-38.064,9.896 -36.897,9.326 -35.47,9.5C-33.97,9.683 -32.856,10.503 -32.339,11.962C-32.14,12.526 -32.1,13.146 -31.981,13.771L-21.405,13.771ZM-95.313,13.75L-84.69,13.75C-84.751,12.866 -84.73,12.023 -84.882,11.213C-85.218,9.426 -85.773,7.712 -86.734,6.137C-88.191,3.749 -90.175,1.932 -92.68,0.747C-95.314,-0.499 -98.104,-1.001 -101.038,-0.648C-102.779,-0.439 -104.437,0.006 -106.017,0.749C-108.098,1.728 -109.871,3.119 -111.265,4.942C-111.918,5.797 -112.465,6.75 -112.953,7.714C-113.725,9.237 -114.115,10.875 -114.321,12.577C-114.569,14.622 -114.358,16.604 -113.407,18.403C-111.919,21.218 -109.598,23.245 -106.789,24.695C-104.226,26.02 -101.618,27.26 -99.049,28.574C-98.096,29.062 -97.207,29.663 -96.604,30.599C-95.582,32.187 -95.709,34.308 -96.944,35.462C-97.93,36.382 -99.143,36.597 -100.426,36.385C-102.661,36.017 -103.929,34.633 -104.351,32.452C-104.451,31.936 -104.42,31.394 -104.45,30.852L-114.966,30.852C-115.238,32.238 -115.128,33.565 -114.897,34.906C-114.457,37.475 -113.334,39.708 -111.604,41.618C-108.925,44.577 -105.465,45.916 -101.559,46.187C-99.773,46.312 -97.998,46.114 -96.245,45.725C-93.511,45.116 -91.063,43.913 -88.961,42.08C-87.316,40.646 -86.058,38.904 -85.204,36.868C-84.238,34.565 -83.876,32.185 -84.276,29.732C-84.79,26.58 -86.564,24.198 -89.051,22.272C-91.005,20.758 -93.199,19.675 -95.384,18.562C-97.298,17.586 -99.265,16.679 -101.06,15.511C-102.561,14.535 -103.11,12.795 -102.223,11.25C-100.906,8.962 -97.53,8.887 -96.032,11.072C-95.481,11.876 -95.289,12.756 -95.313,13.75M22.948,17.968L22.948,9.456L37.869,9.456L37.869,-0.349L11.405,-0.349L11.405,46.146L37.872,46.146L37.872,36.31L22.947,36.31L22.947,27.819L37.87,27.819L37.87,17.968L22.948,17.968ZM-168.589,-0.363L-168.589,46.161L-142.136,46.161L-142.136,36.317L-157.046,36.317L-157.046,27.827L-142.137,27.827L-142.137,17.955L-157.045,17.955L-157.045,9.464L-142.138,9.464L-142.138,-0.363L-168.589,-0.363ZM-351.194,46.2C-338.085,46.161 -328.263,35.914 -327.872,23.851C-327.421,9.981 -338.446,-0.047 -350.328,-0.377C-364.274,-0.765 -374.056,10.089 -374.433,22.02C-374.873,35.89 -363.897,46.201 -351.194,46.2M-172.353,20.536L-198.83,20.536L-198.83,29.574L-185.708,29.574L-185.592,29.788C-186.418,30.576 -187.185,31.44 -188.082,32.138C-191.036,34.434 -194.406,35.165 -198.03,34.358C-201.129,33.668 -203.676,32.02 -205.452,29.328C-207.139,26.773 -207.729,23.941 -207.224,20.945C-206.714,17.921 -205.209,15.409 -202.72,13.596C-200.084,11.677 -197.123,10.833 -193.837,11.273C-190.669,11.698 -188.091,13.147 -186.086,15.626C-185.777,16.009 -185.448,16.222 -184.894,16.218C-180.954,16.184 -177.015,16.2 -173.075,16.2L-172.387,16.2C-172.413,16.071 -172.417,15.994 -172.443,15.924C-172.518,15.722 -172.606,15.525 -172.68,15.322C-174.084,11.443 -176.348,8.163 -179.47,5.457C-181.447,3.743 -183.634,2.395 -186.043,1.387C-188.503,0.359 -191.073,-0.231 -193.721,-0.366C-195.199,-0.44 -196.695,-0.281 -198.176,-0.147C-200.854,0.098 -203.385,0.909 -205.778,2.105C-208.622,3.526 -211.193,5.341 -213.186,7.853C-214.238,9.181 -215.304,10.535 -216.107,12.016C-218.303,16.068 -219.25,20.414 -218.82,25.043C-218.664,26.721 -218.381,28.361 -217.865,29.958C-216.525,34.1 -214.25,37.622 -210.938,40.478C-209.033,42.121 -206.946,43.44 -204.628,44.412C-202.169,45.443 -199.604,46.029 -196.954,46.187C-194.989,46.302 -193.038,46.109 -191.099,45.734C-186.823,44.908 -183.096,42.984 -179.865,40.109C-177.714,38.194 -176.019,35.895 -174.721,33.323C-173.541,30.985 -172.777,28.515 -172.44,25.909C-172.211,24.132 -172.085,22.359 -172.353,20.536M-248.528,21.336C-248.487,21.326 -248.446,21.316 -248.404,21.306C-248.3,21.443 -248.188,21.576 -248.093,21.719C-242.792,29.676 -237.49,37.631 -232.202,45.596C-231.907,46.039 -231.592,46.219 -231.045,46.214C-227.686,46.186 -224.325,46.2 -220.966,46.2L-220.259,46.2L-220.259,-0.34L-231.797,-0.34L-231.797,22.875C-231.926,22.794 -231.988,22.775 -232.018,22.733C-233.049,21.286 -234.076,19.836 -235.105,18.387C-236.889,15.875 -238.668,13.358 -240.46,10.852C-243.01,7.285 -245.578,3.731 -248.114,0.154C-248.388,-0.232 -248.652,-0.405 -249.127,-0.403C-252.547,-0.386 -255.966,-0.394 -259.386,-0.394L-260.038,-0.394L-260.038,46.148L-248.528,46.148L-248.528,21.336ZM51.95,19.666C51.998,19.657 52.046,19.648 52.093,19.639C52.542,21.033 53.003,22.423 53.438,23.82C54.943,28.663 56.432,33.511 57.943,38.352C58.711,40.81 59.53,43.252 60.283,45.715C60.393,46.072 60.49,46.208 60.86,46.206C63.34,46.194 65.82,46.208 68.3,46.183C68.48,46.181 68.764,45.965 68.823,45.789C69.252,44.524 69.636,43.243 70.034,41.967C71.555,37.089 73.077,32.21 74.595,27.331C75.143,25.566 75.673,23.796 76.225,22.032C76.463,21.27 76.736,20.517 76.994,19.76C77.041,19.769 77.088,19.777 77.136,19.785L77.136,46.148L88.614,46.148L88.614,-0.343C88.521,-0.367 88.481,-0.385 88.443,-0.385C83.403,-0.389 78.364,-0.396 73.325,-0.376C73.147,-0.375 72.874,-0.146 72.81,0.036C72.432,1.09 72.093,2.16 71.759,3.23C70.265,8.014 68.774,12.799 67.287,17.584C66.709,19.443 66.147,21.306 65.565,23.164C65.248,24.179 64.905,25.187 64.521,26.357C63.872,24.278 63.279,22.366 62.678,20.458C61.915,18.039 61.136,15.625 60.379,13.205C59.023,8.871 57.673,4.536 56.341,0.196C56.198,-0.268 55.982,-0.407 55.502,-0.405C50.702,-0.386 45.902,-0.394 41.103,-0.394L40.439,-0.394L40.439,46.151L51.95,46.151L51.95,19.666ZM-263.562,-0.345C-263.697,-0.367 -263.774,-0.39 -263.851,-0.391C-266.93,-0.393 -270.01,-0.401 -273.089,-0.376C-273.309,-0.374 -273.6,-0.172 -273.732,0.022C-275.438,2.516 -277.122,5.024 -278.811,7.528C-281.13,10.967 -283.451,14.404 -285.769,17.843C-288.108,21.315 -290.443,24.79 -292.784,28.262C-294.297,30.505 -295.821,32.741 -297.326,34.99C-297.568,35.351 -297.688,35.516 -298.024,35.04C-298.549,34.298 -299.171,33.626 -299.741,32.916C-300.165,32.386 -300.571,31.841 -301.025,31.252C-300.656,31.059 -300.384,30.9 -300.1,30.77C-298.593,30.079 -297.241,29.156 -296.04,28.02C-294.363,26.433 -293.072,24.574 -292.205,22.431C-291.49,20.661 -291.019,18.824 -291.032,16.913C-291.041,15.634 -291.165,14.342 -291.383,13.081C-291.931,9.918 -293.454,7.227 -295.619,4.892C-297.228,3.155 -299.158,1.859 -301.33,0.922C-303.139,0.142 -305.04,-0.355 -306.999,-0.374C-312.817,-0.43 -318.636,-0.394 -324.455,-0.392C-324.666,-0.392 -324.876,-0.371 -325.07,-0.361L-325.07,46.161L-313.545,46.161L-313.545,33.064C-313.493,33.045 -313.441,33.025 -313.389,33.007C-313.307,33.115 -313.224,33.225 -313.142,33.334C-309.992,37.517 -306.845,41.701 -303.682,45.873C-303.555,46.041 -303.277,46.185 -303.069,46.187C-299.77,46.206 -296.47,46.196 -293.171,46.206C-292.815,46.207 -292.608,46.093 -292.402,45.783C-291.318,44.155 -290.191,42.558 -289.097,40.937C-288.812,40.516 -288.517,40.299 -287.955,40.303C-283.917,40.335 -279.877,40.32 -275.837,40.32L-275.075,40.32L-275.075,46.156L-263.562,46.156L-263.562,-0.345ZM-377.248,-2.717L91.713,-2.717L91.713,48.883L-377.248,48.883L-377.248,-2.717Z" style="fill:white;"/>
            </g>
            <g transform="matrix(1,0,0,1,170.241,90.199)">
                <path d="M0,15.053L0,5.125C-0.035,5.111 -0.069,5.097 -0.104,5.084C-2.296,8.374 -4.489,11.664 -6.746,15.053L0,15.053ZM-38.41,7.644C-36.355,7.644 -34.376,7.685 -32.399,7.631C-30.895,7.591 -29.657,6.912 -28.76,5.697C-27.343,3.775 -27.119,1.611 -27.72,-0.621C-28.287,-2.731 -29.508,-4.327 -31.806,-4.739C-32.433,-4.85 -33.104,-4.692 -33.755,-4.686C-35.095,-4.674 -36.434,-4.683 -37.773,-4.681C-37.984,-4.68 -38.195,-4.661 -38.41,-4.651L-38.41,7.644ZM11.565,-15.707L11.565,30.794L0.052,30.794L0.052,24.958L-0.71,24.958C-4.75,24.958 -8.79,24.973 -12.828,24.941C-13.39,24.937 -13.686,25.154 -13.97,25.574C-15.064,27.196 -16.191,28.793 -17.275,30.421C-17.481,30.731 -17.688,30.845 -18.044,30.844C-21.343,30.834 -24.643,30.844 -27.942,30.824C-28.15,30.823 -28.428,30.679 -28.555,30.511C-31.718,26.339 -34.865,22.155 -38.015,17.972C-38.097,17.863 -38.18,17.753 -38.262,17.645C-38.314,17.663 -38.366,17.683 -38.418,17.702L-38.418,30.799L-49.943,30.799L-49.943,-15.723C-49.75,-15.733 -49.539,-15.754 -49.328,-15.754C-43.509,-15.756 -37.69,-15.792 -31.872,-15.736C-29.913,-15.717 -28.012,-15.22 -26.203,-14.44C-24.031,-13.503 -22.101,-12.207 -20.492,-10.47C-18.327,-8.135 -16.804,-5.444 -16.256,-2.281C-16.038,-1.02 -15.914,0.272 -15.905,1.551C-15.892,3.462 -16.363,5.299 -17.078,7.069C-17.945,9.212 -19.236,11.071 -20.913,12.657C-22.114,13.794 -23.466,14.717 -24.973,15.408C-25.257,15.538 -25.529,15.697 -25.898,15.89C-25.444,16.479 -25.038,17.024 -24.614,17.554C-24.044,18.264 -23.422,18.936 -22.897,19.678C-22.562,20.154 -22.441,19.989 -22.199,19.628C-20.694,17.379 -19.17,15.143 -17.657,12.9C-15.316,9.428 -12.981,5.953 -10.642,2.481C-8.324,-0.958 -6.003,-4.395 -3.684,-7.834C-1.995,-10.338 -0.312,-12.846 1.395,-15.34C1.527,-15.534 1.818,-15.736 2.038,-15.738C5.117,-15.763 8.197,-15.755 11.276,-15.753C11.353,-15.752 11.43,-15.729 11.565,-15.707" style="fill:rgb(255,112,0);"/>
            </g>
            <g transform="matrix(1,0,0,1,497.318,100.971)">
                <path d="M0,-6.469L0,20.017L-11.511,20.017L-11.511,-26.528L-10.848,-26.528C-6.048,-26.528 -1.248,-26.521 3.552,-26.54C4.032,-26.542 4.248,-26.403 4.391,-25.939C5.723,-21.598 7.073,-17.263 8.429,-12.93C9.186,-10.51 9.965,-8.096 10.728,-5.677C11.329,-3.768 11.922,-1.856 12.571,0.223C12.955,-0.948 13.298,-1.956 13.615,-2.97C14.197,-4.828 14.759,-6.692 15.337,-8.55C16.824,-13.336 18.314,-18.121 19.809,-22.905C20.143,-23.974 20.481,-25.044 20.859,-26.099C20.924,-26.28 21.197,-26.51 21.375,-26.51C26.414,-26.53 31.453,-26.523 36.493,-26.52C36.531,-26.52 36.57,-26.501 36.664,-26.477L36.664,20.014L25.186,20.014L25.186,-6.349C25.138,-6.358 25.091,-6.366 25.044,-6.374C24.786,-5.617 24.513,-4.865 24.274,-4.102C23.723,-2.339 23.192,-0.568 22.645,1.197C21.127,6.075 19.604,10.954 18.084,15.832C17.686,17.109 17.302,18.39 16.873,19.655C16.813,19.83 16.53,20.046 16.35,20.048C13.87,20.073 11.39,20.06 8.91,20.072C8.54,20.073 8.442,19.938 8.333,19.58C7.58,17.117 6.761,14.675 5.993,12.217C4.481,7.376 2.993,2.529 1.487,-2.314C1.053,-3.712 0.592,-5.102 0.143,-6.495C0.096,-6.487 0.048,-6.478 0,-6.469" style="fill:rgb(255,112,0);"/>
            </g>
            <g transform="matrix(1,0,0,1,196.84,99.3149)">
                <path d="M0,-3.142L0,21.67L-11.51,21.67L-11.51,-24.871L-10.858,-24.871C-7.438,-24.871 -4.019,-24.864 -0.599,-24.881C-0.124,-24.883 0.14,-24.71 0.414,-24.324C2.95,-20.747 5.519,-17.193 8.068,-13.626C9.86,-11.12 11.639,-8.603 13.423,-6.091C14.452,-4.642 15.479,-3.192 16.511,-1.745C16.541,-1.703 16.603,-1.684 16.731,-1.602L16.731,-24.818L28.269,-24.818L28.269,21.722L27.562,21.722C24.203,21.722 20.843,21.708 17.483,21.736C16.936,21.741 16.621,21.561 16.327,21.118C11.038,13.153 5.736,5.198 0.436,-2.759C0.34,-2.902 0.228,-3.035 0.124,-3.172C0.083,-3.162 0.042,-3.152 0,-3.142" style="fill:rgb(255,112,0);"/>
            </g>
            <g transform="matrix(1,0,0,1,273.015,100.162)">
                <path d="M0,-4.789C0.268,-2.966 0.142,-1.193 -0.087,0.584C-0.424,3.19 -1.188,5.66 -2.368,7.998C-3.666,10.57 -5.361,12.869 -7.512,14.784C-10.743,17.659 -14.47,19.583 -18.746,20.409C-20.685,20.784 -22.636,20.977 -24.601,20.861C-27.251,20.704 -29.816,20.118 -32.275,19.087C-34.593,18.115 -36.68,16.796 -38.585,15.152C-41.896,12.297 -44.172,8.774 -45.512,4.633C-46.028,3.036 -46.311,1.396 -46.467,-0.282C-46.897,-4.912 -45.95,-9.257 -43.754,-13.309C-42.951,-14.79 -41.885,-16.144 -40.833,-17.472C-38.84,-19.984 -36.269,-21.799 -33.425,-23.22C-31.032,-24.416 -28.501,-25.227 -25.823,-25.472C-24.342,-25.606 -22.846,-25.766 -21.368,-25.691C-18.72,-25.556 -16.15,-24.966 -13.69,-23.938C-11.281,-22.931 -9.094,-21.582 -7.117,-19.868C-3.995,-17.162 -1.731,-13.882 -0.327,-10.003C-0.253,-9.8 -0.165,-9.603 -0.09,-9.401C-0.064,-9.331 -0.06,-9.254 -0.034,-9.125L-0.722,-9.125C-4.662,-9.125 -8.601,-9.141 -12.541,-9.107C-13.095,-9.103 -13.424,-9.316 -13.733,-9.699C-15.738,-12.178 -18.316,-13.627 -21.484,-14.052C-24.77,-14.493 -27.731,-13.648 -30.367,-11.729C-32.856,-9.916 -34.361,-7.404 -34.871,-4.38C-35.375,-1.384 -34.786,1.448 -33.099,4.003C-31.323,6.694 -28.776,8.343 -25.677,9.033C-22.053,9.84 -18.683,9.108 -15.729,6.813C-14.832,6.115 -14.065,5.251 -13.239,4.463L-13.355,4.249L-26.477,4.249L-26.477,-4.789L0,-4.789Z" style="fill:rgb(255,112,0);"/>
            </g>
            <g transform="matrix(1,0,0,1,94.2119,85.6274)">
                <path d="M0,23.856C6.524,23.816 11.722,18.666 11.718,12.193C11.714,5.507 6.618,0.591 0.396,0.381C-6.483,0.148 -11.58,5.727 -11.735,11.764C-11.91,18.57 -6.336,23.886 0,23.856M-0.038,35.41C-12.741,35.411 -23.716,25.099 -23.277,11.23C-22.899,-0.701 -13.118,-11.555 0.828,-11.167C12.71,-10.837 23.735,-0.809 23.285,13.06C22.893,25.124 13.071,35.371 -0.038,35.41" style="fill:rgb(255,112,0);"/>
            </g>
            <g transform="matrix(1,0,0,1,276.779,120.998)">
                <path d="M0,-46.524L26.451,-46.524L26.451,-36.696L11.543,-36.696L11.543,-28.206L26.452,-28.206L26.452,-18.334L11.542,-18.334L11.542,-9.843L26.453,-9.843L26.453,0L0,0L0,-46.524Z" style="fill:rgb(255,112,0);"/>
            </g>
            <g transform="matrix(1,0,0,1,468.316,102.666)">
                <path d="M0,-9.861L14.922,-9.861L14.922,-0.01L-0.001,-0.01L-0.001,8.48L14.924,8.48L14.924,18.317L-11.543,18.317L-11.543,-28.178L14.921,-28.178L14.921,-18.373L0,-18.373L0,-9.861Z" style="fill:rgb(255,112,0);"/>
            </g>
            <g transform="matrix(1,0,0,1,350.056,106.398)">
                <path d="M0,-17.811C0.023,-18.805 -0.169,-19.685 -0.72,-20.489C-2.218,-22.674 -5.594,-22.599 -6.91,-20.311C-7.798,-18.766 -7.248,-17.026 -5.747,-16.05C-3.952,-14.882 -1.985,-13.975 -0.071,-12.999C2.113,-11.886 4.308,-10.803 6.262,-9.289C8.748,-7.363 10.522,-4.981 11.036,-1.829C11.437,0.624 11.074,3.004 10.108,5.307C9.255,7.343 7.996,9.085 6.352,10.519C4.249,12.352 1.802,13.555 -0.933,14.164C-2.686,14.553 -4.461,14.751 -6.246,14.627C-10.152,14.355 -13.612,13.016 -16.292,10.057C-18.021,8.147 -19.145,5.914 -19.585,3.345C-19.815,2.004 -19.926,0.677 -19.653,-0.709L-9.138,-0.709C-9.107,-0.167 -9.139,0.375 -9.038,0.891C-8.616,3.072 -7.349,4.456 -5.113,4.824C-3.83,5.036 -2.617,4.821 -1.632,3.901C-0.396,2.747 -0.27,0.626 -1.292,-0.962C-1.895,-1.898 -2.783,-2.499 -3.736,-2.987C-6.306,-4.301 -8.913,-5.541 -11.477,-6.866C-14.285,-8.316 -16.606,-10.343 -18.095,-13.158C-19.046,-14.957 -19.257,-16.939 -19.009,-18.984C-18.803,-20.686 -18.412,-22.324 -17.641,-23.847C-17.152,-24.811 -16.605,-25.764 -15.952,-26.619C-14.559,-28.442 -12.785,-29.832 -10.704,-30.812C-9.124,-31.555 -7.467,-32 -5.726,-32.209C-2.792,-32.562 -0.002,-32.06 2.633,-30.814C5.138,-29.629 7.121,-27.812 8.578,-25.424C9.539,-23.849 10.095,-22.135 10.431,-20.348C10.582,-19.538 10.562,-18.695 10.622,-17.811L0,-17.811Z" style="fill:rgb(255,112,0);"/>
            </g>
            <g transform="matrix(1,0,0,1,423.963,106.484)">
                <path d="M0,-17.876L-10.576,-17.876C-10.694,-18.501 -10.734,-19.121 -10.934,-19.685C-11.451,-21.145 -12.564,-21.964 -14.064,-22.147C-15.492,-22.322 -16.659,-21.751 -17.473,-20.54C-18.521,-18.98 -17.917,-17.105 -16.414,-16.134C-14.615,-14.973 -12.652,-14.061 -10.737,-13.085C-8.553,-11.972 -6.359,-10.889 -4.405,-9.375C-1.919,-7.448 -0.145,-5.067 0.369,-1.914C0.77,0.538 0.407,2.919 -0.559,5.222C-1.412,7.258 -2.672,9 -4.316,10.433C-6.419,12.266 -8.866,13.469 -11.601,14.077C-13.354,14.467 -15.129,14.664 -16.914,14.54C-20.82,14.269 -24.28,12.93 -26.959,9.971C-28.688,8.061 -29.812,5.826 -30.253,3.258C-30.482,1.917 -30.593,0.59 -30.32,-0.796L-19.831,-0.796C-19.77,-0.178 -19.742,0.433 -19.644,1.031C-19.223,3.568 -16.736,5.192 -14.188,4.713C-12.795,4.45 -11.851,3.719 -11.441,2.414C-10.98,0.947 -11.333,-0.442 -12.377,-1.548C-12.962,-2.167 -13.706,-2.685 -14.467,-3.082C-17.147,-4.481 -19.898,-5.749 -22.561,-7.183C-25.208,-8.609 -27.396,-10.593 -28.785,-13.299C-29.717,-15.115 -29.911,-17.084 -29.67,-19.13C-29.464,-20.877 -29.014,-22.541 -28.255,-24.103C-27.355,-25.954 -26.109,-27.552 -24.503,-28.879C-22.938,-30.171 -21.206,-31.106 -19.278,-31.708C-17.464,-32.273 -15.6,-32.54 -13.712,-32.387C-9.809,-32.069 -6.396,-30.619 -3.717,-27.694C-1.932,-25.746 -0.783,-23.448 -0.334,-20.834C-0.172,-19.885 -0.114,-18.918 0,-17.876" style="fill:rgb(255,112,0);"/>
            </g>
            <g transform="matrix(1,0,0,1,377.215,104.319)">
                <path d="M0,-13.215C0.332,-14.012 0.625,-14.691 0.899,-15.376C2.463,-19.285 4.022,-23.196 5.581,-27.107C5.873,-27.838 6.146,-28.576 6.444,-29.304C6.569,-29.609 6.674,-29.89 7.141,-29.888C11.28,-29.866 15.42,-29.875 19.559,-29.874C19.637,-29.874 19.716,-29.861 19.882,-29.846C19.782,-29.622 19.707,-29.432 19.616,-29.25C15.095,-20.205 10.567,-11.162 6.06,-2.111C5.866,-1.722 5.757,-1.247 5.756,-0.812C5.735,4.767 5.742,10.347 5.742,15.926L5.742,16.675L-5.811,16.675L-5.811,15.95C-5.811,10.311 -5.805,4.673 -5.823,-0.967C-5.825,-1.384 -5.928,-1.838 -6.113,-2.211C-10.622,-11.262 -15.148,-20.304 -19.672,-29.348C-19.741,-29.486 -19.803,-29.628 -19.898,-29.832C-19.684,-29.849 -19.518,-29.874 -19.353,-29.874C-15.333,-29.876 -11.313,-29.869 -7.295,-29.883C-6.853,-29.885 -6.649,-29.757 -6.477,-29.319C-4.949,-25.438 -3.384,-21.572 -1.831,-17.701C-1.304,-16.385 -0.782,-15.068 -0.256,-13.753C-0.2,-13.613 -0.127,-13.48 0,-13.215" style="fill:rgb(255,112,0);"/>
            </g>
            <g transform="matrix(1,0,0,1,445.368,74.4879)">
                <path d="M0,46.515L-11.552,46.515L-11.552,9.849L-20.634,9.849L-20.634,0L9.189,0L9.189,9.806L0,9.806L0,46.515Z" style="fill:rgb(255,112,0);"/>
            </g>
            <g transform="matrix(1,0,0,1,131.831,85.3893)">
                <path d="M0,12.454L0,0.159C0.215,0.148 0.426,0.129 0.637,0.129C1.976,0.126 3.315,0.136 4.655,0.124C5.306,0.118 5.978,-0.041 6.604,0.071C8.902,0.482 10.123,2.079 10.69,4.189C11.291,6.42 11.067,8.585 9.65,10.506C8.753,11.722 7.516,12.4 6.011,12.441C4.034,12.495 2.055,12.454 0,12.454" style="fill:white;"/>
            </g>
            <g transform="matrix(-1,-0,-0,1,163.495,95.283)">
                <path d="M-6.746,9.969L0,9.969C-2.257,6.58 -4.45,3.29 -6.642,0C-6.677,0.013 -6.711,0.027 -6.746,0.041L-6.746,9.969Z" style="fill:white;"/>
            </g>
            <g transform="matrix(1,0,0,1,94.2119,85.8054)">
                <path d="M0,23.678C-6.336,23.708 -11.91,18.392 -11.735,11.586C-11.58,5.549 -6.483,-0.03 0.396,0.203C6.618,0.413 11.714,5.329 11.718,12.015C11.722,18.488 6.524,23.638 0,23.678" style="fill:white;"/>
            </g>
        </g>
    </g>
</svg>
